<svg id="Capa_1" data-name="Capa 1" xmlns="http://www.w3.org/2000/svg" viewBox="0 0 480.01 563.52"><defs><style>.cls-1,.cls-2{fill:none;stroke-miterlimit:10;}.cls-1{stroke:#1d1d1b;}.cls-2{stroke:#009fe3;stroke-width:21px;}.cls-3{fill:#009fe3;}</style></defs><path class="cls-1" d="M542,262" transform="translate(-70.27 -118.19)"/><path class="cls-1" d="M0,355.4" transform="translate(-70.27 -118.19)"/><path class="cls-1" d="M637.19,355.4" transform="translate(-70.27 -118.19)"/><path class="cls-1" d="M64.48,189.13" transform="translate(-70.27 -118.19)"/><path class="cls-2" d="M530.71,235" transform="translate(-70.27 -118.19)"/><polygon class="cls-3" points="19.57 135.47 19.47 98.22 19.57 98.22 19.57 135.47"/><polygon class="cls-3" points="26.8 134.12 19.18 116.02 11.29 99.93 231.68 2.1 248.23 35.86 27.33 133.92 26.8 134.12"/><path class="cls-2" d="M463,69.35" transform="translate(-70.27 -118.19)"/><path class="cls-2" d="M157.42,69.35" transform="translate(-70.27 -118.19)"/><polygon class="cls-3" points="452.17 133.73 231.68 35.86 248.22 2.1 468.71 99.96 452.17 133.73"/><path class="cls-3" d="M317.54,681.71,305.39,673c-70-50.12-128.36-115.59-168.77-189.32C94.3,406.48,72,322.94,70.27,235.39l39.13-.7c3.07,157.14,78.43,302,207.37,399.61C440.49,534.51,511.14,389.83,511.14,235h39.14c0,171-80.51,330.54-220.88,437.62Z" transform="translate(-70.27 -118.19)"/><line class="cls-3" x1="100.44" y1="66.12" x2="47.56" y2="116.5"/><path class="cls-3" d="M317.54,681.71,305.39,673c-70-50.12-128.36-115.59-168.77-189.32C94.3,406.48,72,322.94,70.27,235.39l39.13-.7c3.07,157.14,78.43,302,207.37,399.61C440.49,534.51,511.14,389.83,511.14,235h39.14c0,171-80.51,330.54-220.88,437.62Z" transform="translate(-70.27 -118.19)"/><path class="cls-3" d="M318.49,120.29h0a17.37,17.37,0,0,0-16.46,0l-.08,0,8.32,16.78" transform="translate(-70.27 -118.19)"/><path class="cls-3" d="M550.28,235v-3.8A13.52,13.52,0,0,0,539,218.16h0L530.71,235" transform="translate(-70.27 -118.19)"/><path class="cls-3" d="M81.56,218.12h0a13.58,13.58,0,0,0-11.29,13.13v4.14h22Z" transform="translate(-70.27 -118.19)"/></svg>